<svg enable-background="new 0 0 132.333 36" height="36" viewBox="0 0 132.333 36" width="132.333" xmlns="http://www.w3.org/2000/svg" xmlns:xlink="http://www.w3.org/1999/xlink"><linearGradient id="a" gradientTransform="matrix(1 0 0 -1 153.64 240.055)" gradientUnits="userSpaceOnUse" x1="-153.64" x2="-115.64" y1="222.055" y2="222.055"><stop offset="0" stop-color="#2979ff"/><stop offset="1" stop-color="#4c589e"/></linearGradient><path d="m6 0h26c3.314 0 6 2.686 6 6v24c0 3.314-2.686 6-6 6h-26c-3.314 0-6-2.686-6-6v-24c0-3.314 2.686-6 6-6z" fill="url(#a)"/><path d="m19.24 29.52c-1.813 0-3.584-.331-5.312-.992-1.728-.683-3.264-1.643-4.608-2.88l2.656-3.328c1.301 1.152 2.549 1.984 3.744 2.496 1.216.512 2.496.768 3.84.768.939 0 1.749-.107 2.432-.32.683-.235 1.205-.565 1.568-.992.384-.427.576-.928.576-1.504 0-.768-.277-1.355-.832-1.76-.555-.427-1.504-.757-2.848-.992l-4.448-.768c-1.899-.32-3.349-.992-4.352-2.016-.981-1.024-1.472-2.347-1.472-3.968 0-1.387.352-2.592 1.056-3.616.725-1.024 1.739-1.803 3.04-2.336 1.323-.555 2.891-.832 4.704-.832 1.643 0 3.275.277 4.896.832 1.643.555 3.093 1.323 4.352 2.304l-2.496 3.456c-2.347-1.792-4.704-2.688-7.072-2.688-.832 0-1.557.107-2.176.32s-1.099.512-1.44.896c-.32.363-.48.8-.48 1.312 0 .683.245 1.216.736 1.6.491.363 1.312.64 2.464.832l4.224.704c2.24.363 3.915 1.077 5.024 2.144 1.109 1.045 1.664 2.432 1.664 4.16 0 1.451-.384 2.72-1.152 3.808-.768 1.067-1.867 1.899-3.296 2.496-1.408.576-3.072.864-4.992.864z" fill="#fff"/><path d="m50.85 11.539h2.496v13.78h-2.496zm1.248-2.652c-.485 0-.893-.156-1.222-.468-.312-.312-.468-.693-.468-1.144s.156-.832.468-1.144c.329-.329.737-.494 1.222-.494s.884.156 1.196.468c.329.295.494.667.494 1.118 0 .468-.165.867-.494 1.196-.312.312-.71.468-1.196.468zm5.13 8.216h6.994v2.158h-6.994zm16.074 8.424c-1.369 0-2.695-.208-3.978-.624-1.265-.433-2.262-.988-2.99-1.664l.962-2.028c.693.624 1.577 1.135 2.652 1.534 1.092.381 2.21.572 3.354.572 1.508 0 2.635-.251 3.38-.754.745-.52 1.118-1.205 1.118-2.054 0-.624-.208-1.127-.624-1.508-.399-.399-.901-.702-1.508-.91-.589-.208-1.43-.442-2.522-.702-1.369-.329-2.479-.659-3.328-.988-.832-.329-1.551-.832-2.158-1.508-.589-.693-.884-1.621-.884-2.782 0-.971.251-1.846.754-2.626.52-.78 1.3-1.404 2.34-1.872s2.331-.702 3.874-.702c1.075 0 2.132.139 3.172.416s1.933.676 2.678 1.196l-.858 2.08c-.763-.485-1.577-.849-2.444-1.092-.867-.26-1.716-.39-2.548-.39-1.473 0-2.583.269-3.328.806-.728.537-1.092 1.231-1.092 2.08 0 .624.208 1.135.624 1.534.416.381.927.685 1.534.91.624.208 1.465.433 2.522.676 1.369.329 2.47.659 3.302.988s1.543.832 2.132 1.508c.607.676.91 1.586.91 2.73 0 .953-.26 1.829-.78 2.626-.52.78-1.309 1.404-2.366 1.872-1.058.451-2.358.676-3.9.676zm17.838-14.118c1.751 0 3.137.511 4.16 1.534 1.04 1.005 1.56 2.487 1.56 4.446v7.93h-2.496v-7.644c0-1.335-.321-2.34-.962-3.016s-1.56-1.014-2.756-1.014c-1.352 0-2.418.399-3.198 1.196-.78.78-1.17 1.907-1.17 3.38v7.098h-2.496v-19.292h2.496v7.462c.52-.659 1.196-1.17 2.028-1.534.849-.364 1.794-.546 2.834-.546zm16.317 14.066c-1.369 0-2.6-.303-3.692-.91s-1.95-1.439-2.574-2.496c-.607-1.075-.91-2.288-.91-3.64s.303-2.557.91-3.614c.624-1.075 1.482-1.907 2.574-2.496 1.092-.607 2.323-.91 3.692-.91s2.591.303 3.666.91c1.092.589 1.941 1.421 2.548 2.496.624 1.057.936 2.262.936 3.614s-.312 2.565-.936 3.64c-.607 1.057-1.456 1.889-2.548 2.496-1.074.607-2.296.91-3.666.91zm0-2.184c.884 0 1.673-.199 2.366-.598.711-.416 1.265-.988 1.664-1.716.399-.745.598-1.595.598-2.548s-.199-1.794-.598-2.522c-.399-.745-.953-1.317-1.664-1.716-.693-.399-1.482-.598-2.366-.598s-1.681.199-2.392.598c-.693.399-1.248.971-1.664 1.716-.399.728-.598 1.569-.598 2.522s.199 1.803.598 2.548c.416.728.971 1.3 1.664 1.716.711.399 1.508.598 2.392.598zm17.908-11.882c1.335 0 2.531.295 3.588.884s1.881 1.413 2.47 2.47c.607 1.057.91 2.279.91 3.666s-.303 2.617-.91 3.692c-.589 1.057-1.413 1.881-2.47 2.47s-2.253.884-3.588.884c-.988 0-1.898-.191-2.73-.572-.815-.381-1.508-.936-2.08-1.664v7.124h-2.496v-18.824h2.392v2.184c.555-.763 1.257-1.335 2.106-1.716.85-.399 1.786-.598 2.808-.598zm-.208 11.882c.884 0 1.673-.199 2.366-.598.711-.416 1.265-.988 1.664-1.716.416-.745.624-1.595.624-2.548s-.208-1.794-.624-2.522c-.399-.745-.953-1.317-1.664-1.716-.693-.399-1.482-.598-2.366-.598-.867 0-1.655.208-2.366.624-.693.399-1.248.962-1.664 1.69-.399.728-.598 1.569-.598 2.522s.199 1.803.598 2.548c.399.728.953 1.3 1.664 1.716.711.399 1.5.598 2.366.598z" fill="#0c2146"/></svg>